<svg height="512pt" viewBox="0 -5 512.00024 512" width="512pt" xmlns="http://www.w3.org/2000/svg"><path d="m500.90625 199.015625h-412.515625c-1.097656 0-2.132813-.496094-2.8125-1.355469-16.414063-20.746094-33.117187-43.144531-33.953125-68.5625-.28125-8.570312 1.296875-17.164062.613281-25.726562-2.6875-33.582032-38.605469-58.769532-44.679687-91.609375-.410156-2.214844 1.277344-4.265625 3.527344-4.265625h414.367187c1.765625 0 3.253906 1.289062 3.535156 3.035156 5.382813 33.445312 42.171875 58.839844 44.894531 92.839844.683594 8.5625-.894531 17.152344-.613281 25.726562.777344 23.617188 15.242188 44.625 30.460938 64.125 1.839843 2.355469.167969 5.792969-2.824219 5.792969zm0 0" fill="#c39b7c"/><path d="m500.910156 199.015625h-38.519531c-13.09375-17.832031-26.515625-36.851563-27.097656-57.589844-.289063-10.003906 1.289062-20.027343.609375-30.023437-2.617188-38.160156-53.570313-67.035156-60.96875-103.90625h50.515625c1.769531 0 3.257812 1.289062 3.539062 3.039062 5.386719 33.441406 42.175781 58.839844 44.894531 92.832032.679688 8.5625-.898437 17.160156-.609374 25.734374.769531 23.609376 15.242187 44.617188 30.453124 64.117188 1.839844 2.359375.171876 5.796875-2.816406 5.796875zm0 0" fill="#b88a65"/><path d="m197.917969 198.640625 14.195312 71.054687c2.269531 11.375 8.28125 21.652344 17.042969 29.140626l22.941406 19.609374c3.742188 3.199219 6.390625 7.484376 7.574219 12.257813l23.949219 96.371094 27.117187-27.070313-15.816406-83.335937c-.132813-.703125-.234375-1.414063-.304687-2.128907l-5.941407-61.375c-.675781-7.003906-2.773437-13.800781-6.160156-19.96875l-20.519531-34.554687zm0 0" fill="#7c8388"/><path d="m198.023438 198.359375 14.09375 71.339844c2.269531 11.371093 8.277343 21.652343 17.039062 29.140625l22.945312 19.609375c3.734376 3.195312 6.382813 7.480469 7.570313 12.261719l23.945313 96.363281 13.039062-13.023438-20.707031-83.339843c-1.1875-4.78125-4.691407-16.777344-8.429688-19.972657l-22.941406-19.609375c-8.765625-7.488281-13.914063-10.058594-16.183594-21.429687l-14.082031-71.339844zm0 0" fill="#575f64"/><path d="m272.3125 429.050781c3.597656 39.941407 38.894531 69.414063 78.835938 65.816407 39.941406-3.597657 69.410156-38.886719 65.8125-78.835938-3.589844-39.941406-38.886719-69.40625-78.828126-65.816406-39.949218 3.601562-69.414062 38.898437-65.820312 78.835937zm68.707031-46.691406c22.191407-1.996094 41.800781 14.378906 43.796875 36.566406s-14.367187 41.800781-36.566406 43.796875c-22.1875 1.996094-41.789062-14.375-43.792969-36.566406-2-22.1875 14.375-41.800781 36.5625-43.796875zm0 0" fill="#d93131"/><path d="m272.3125 429.050781c3.597656 39.941407 38.894531 69.414063 78.835938 65.816407 1.105468-.101563 2.199218-.222657 3.289062-.375-32.785156-4.472657-59.320312-31.09375-62.421875-65.4375-3.488281-38.835938 24.261719-73.277344 62.523437-78.460938-5.328124-.738281-10.820312-.882812-16.40625-.375-39.949218 3.597656-69.414062 38.894531-65.820312 78.832031zm0 0" fill="#cb2c2c"/><path d="m201.257812 400 27.117188 27.074219 23.945312-96.371094c1.1875-4.773437 3.835938-9.058594 7.578126-12.257813l22.941406-19.609374c8.757812-7.488282 14.773437-17.769532 17.042968-29.140626l35.910157-179.742187c.21875-1.109375-.035157-2.257813-.707031-3.152344l-10.992188-14.660156c-1.683594-2.242187-5.089844-1.972656-6.453125.507813l-88.160156 160.546874c-3.386719 6.167969-5.484375 12.960938-6.164063 19.964844l-5.9375 61.378906c-.070312.710938-.171875 1.421876-.304687 2.128907zm0 0" fill="#d3d3d8"/><path d="m335.082031 86.804688-10.992187-14.65625c-1.679688-2.246094-5.089844-1.980469-6.453125.503906l-3.992188 7.273437 5.160157 6.878907c.675781.890624.933593 2.039062.710937 3.144531l-35.914063 179.75c-2.273437 11.371093-7.421874 13.941406-16.183593 21.429687l-22.945313 19.609375c-3.734375 3.195313-7.238281 15.191407-8.429687 19.972657l-20.707031 83.339843 13.039062 13.023438 23.945312-96.363281c1.191407-4.78125 3.835938-9.066407 7.574219-12.261719l22.941407-19.609375c8.765624-7.488282 14.769531-17.769532 17.039062-29.140625l35.914062-179.75c.226563-1.105469-.03125-2.253907-.707031-3.144531zm0 0" fill="#babac0"/><path d="m173.863281 350.21875c-39.941406-3.59375-75.238281 25.871094-78.828125 65.8125-3.597656 39.949219 25.871094 75.238281 65.8125 78.835938 39.941406 3.597656 75.238282-25.871094 78.839844-65.8125 3.585938-39.941407-25.875-75.238282-65.824219-78.835938zm33.675781 75.9375c-2.003906 22.191406-21.605468 38.5625-43.796874 36.566406-22.195313-1.996094-38.558594-21.609375-36.5625-43.796875 1.996093-22.1875 21.605468-38.5625 43.796874-36.566406 22.1875 1.996094 38.558594 21.609375 36.5625 43.796875zm0 0" fill="#d93131"/><path d="m173.863281 350.21875c-5.585937-.507812-11.078125-.363281-16.40625.375 38.261719 5.183594 66.011719 39.625 62.523438 78.460938-3.101563 34.34375-29.636719 60.964843-62.421875 65.4375 1.089844.152343 2.183594.273437 3.289062.375 39.941406 3.597656 75.238282-25.875 78.839844-65.816407 3.585938-39.9375-25.875-75.234375-65.824219-78.832031zm0 0" fill="#cb2c2c"/><path d="m274.320312 271.789062c0 10.121094-8.203124 18.324219-18.324218 18.324219-10.117188 0-18.324219-8.203125-18.324219-18.324219 0-10.117187 8.207031-18.324218 18.324219-18.324218 10.121094 0 18.324218 8.207031 18.324218 18.324218zm0 0" fill="#7c8388"/><path d="m273.96875 271.128906c0 10.125-8.195312 18.332032-18.320312 18.332032-8.375 0-15.441407-5.617188-17.621094-13.292969 2.097656.839843 4.386718 1.300781 6.796875 1.300781 10.113281 0 18.320312-8.207031 18.320312-18.332031 0-1.738281-.242187-3.429688-.699219-5.019531 6.753907 2.691406 11.523438 9.296874 11.523438 17.011718zm0 0" fill="#575f64"/><path d="m255.996094 294.992188c12.796875 0 23.203125-10.40625 23.203125-23.203126 0-12.792968-10.40625-23.203124-23.203125-23.203124-12.792969 0-23.203125 10.410156-23.203125 23.203124 0 12.796876 10.410156 23.203126 23.203125 23.203126zm0-31.414063c4.527344 0 8.210937 3.683594 8.210937 8.210937 0 4.527344-3.683593 8.210938-8.210937 8.210938s-8.210938-3.683594-8.210938-8.210938c0-4.527343 3.683594-8.210937 8.210938-8.210937zm0 0"/><path d="m296.992188 426.828125c2.234374 24.824219 23.152343 43.554687 47.613281 43.554687 1.429687 0 2.871093-.0625 4.320312-.195312 26.273438-2.363281 45.726563-25.660156 43.359375-51.933594-2.363281-26.269531-25.660156-45.722656-51.933594-43.359375-12.726562 1.148438-24.246093 7.179688-32.433593 16.988281-8.191407 9.808594-12.070313 22.21875-10.925781 34.945313zm22.433593-25.335937c5.621094-6.734376 13.53125-10.878907 22.269531-11.664063 18.03125-1.632813 34.035157 11.730469 35.660157 29.769531 1.621093 18.039063-11.734375 34.035156-29.773438 35.660156-18.039062 1.628907-34.035156-11.730468-35.65625-29.769531-.789062-8.738281 1.875-17.261719 7.5-23.996093zm0 0"/><path d="m163.066406 470.1875c1.453125.132812 2.894532.195312 4.324219.195312 24.457031 0 45.378906-18.734374 47.613281-43.550781v-.003906c1.144532-12.726563-2.734375-25.136719-10.925781-34.945313-8.1875-9.808593-19.707031-15.84375-32.433594-16.988281-26.28125-2.367187-49.570312 17.085938-51.933593 43.359375-2.367188 26.273438 17.085937 49.570313 43.355468 51.933594zm-28.425781-50.589844c1.535156-17.042968 15.898437-29.902344 32.691406-29.902344.980469 0 1.972657.042969 2.96875.132813 8.738281.785156 16.648438 4.929687 22.269531 11.664063 5.621094 6.734374 8.285157 15.257812 7.5 23.996093-1.625 18.039063-17.613281 31.40625-35.660156 29.769531-18.039062-1.625-31.390625-17.621093-29.769531-35.660156zm0 0"/><path d="m509.640625 188.609375c-13.59375-17.417969-28.15625-37.835937-28.878906-59.757813-.113281-3.503906.117187-7.085937.363281-10.878906.320312-4.898437.648438-9.960937.230469-15.203125-1.578125-19.675781-12.960938-36.128906-23.96875-52.039062-9.609375-13.886719-18.683594-27.003907-20.996094-41.390625-.871094-5.410156-5.472656-9.339844-10.9375-9.339844h-414.367187c-3.300782 0-6.402344 1.457031-8.515626 3.992188-2.117187 2.546874-2.984374 5.875-2.382812 9.132812 3.171875 17.136719 13.367188 31.875 23.226562 46.128906 10.335938 14.9375 20.097657 29.050782 21.351563 44.710938.332031 4.160156.054687 8.46875-.242187 13.035156-.261719 3.984375-.527344 8.109375-.390626 12.34375.890626 26.992188 17.332032 49.917969 35.566407 72.964844 2.113281 2.671875 5.28125 4.203125 8.691406 4.203125h103.414063l12.957031 64.65625c1.355469 6.773437 3.894531 13.238281 7.4375 19.085937l-2.28125 23.5625c-.046875.484375-.117188.976563-.207031 1.453125l-6.738282 35.492188c-8.78125-4.355469-18.378906-7.101563-28.433594-8.007813-36.253906-3.257812-70.195312 18.34375-82.539062 52.542969-1.40625 3.894531.613281 8.1875 4.507812 9.59375 3.894532 1.40625 8.191407-.609375 9.59375-4.503906 10.03125-27.796875 37.625-45.347657 67.09375-42.703125 17.320313 1.558594 33.003907 9.773437 44.152344 23.125 11.144532 13.351562 16.425782 30.25 14.867188 47.574218-1.558594 17.324219-9.769532 33.003907-23.125 44.152344-13.351563 11.144532-30.246094 16.425782-47.570313 14.867188-26.496093-2.382813-48.65625-20.359375-56.453125-45.792969-1.210937-3.957031-5.402344-6.183594-9.363281-4.972656-3.957031 1.214843-6.183594 5.40625-4.96875 9.367187 9.589844 31.285156 36.847656 53.398438 69.441406 56.332032 2.449219.21875 4.890625.328124 7.320313.328124 18.710937 0 36.664062-6.484374 51.203125-18.621093 16.425781-13.714844 26.53125-33.003907 28.449219-54.320313.996093-11.082031-.300782-22.015625-3.6875-32.273437l12.535156-50.449219 12.539062 50.449219c-3.386718 10.257812-4.683594 21.191406-3.6875 32.273437 1.917969 21.3125 12.019532 40.605469 28.449219 54.320313 14.539063 12.136719 32.488281 18.621093 51.203125 18.621093 2.425781 0 4.871094-.109374 7.320312-.328124 43.996094-3.960938 76.566407-42.976563 72.609376-86.972657-3.960938-43.996093-42.96875-76.558593-86.972657-72.609375-10.058593.90625-19.652343 3.652344-28.4375 8.007813l-6.734375-35.488281c-.09375-.480469-.160156-.96875-.210937-1.453126l-2.28125-23.570312c3.539062-5.851562 6.085937-12.308594 7.4375-19.082031l12.917969-64.652344h51.785156c4.140625 0 7.496094-3.355469 7.496094-7.496094s-3.355469-7.496093-7.496094-7.496093h-48.789063l19.996094-100.101563c.636719-3.195313-.113281-6.515625-2.058594-9.113281l-10.992187-14.660156c-2.316406-3.089844-5.996094-4.773438-9.84375-4.5-3.871094.273437-7.300782 2.476562-9.179688 5.894531l-47.578125 86.644531v-5.765625c0-4.140625-3.355469-7.496094-7.496093-7.496094-4.140626 0-7.496094 3.355469-7.496094 7.496094v33.070313l-4.597656 8.371093h-45.980469c-.511719 0-1.011719.058594-1.503907.15625h-106.132812c-16.144531-20.496093-30.441406-40.765625-31.164062-62.667969-.113282-3.503906.117187-7.085937.363281-10.878906.320312-4.898437.648437-9.960937.230469-15.203125-1.574219-19.679687-12.960938-36.132812-23.96875-52.046875-8.335938-12.050781-16.261719-23.507812-19.734376-35.730468h234.058594c-.980468 1.265624-1.566406 2.851562-1.566406 4.578124v25.402344c0 4.144532 3.355469 7.496094 7.496094 7.496094 4.136718 0 7.496094-3.351562 7.496094-7.496094v-25.402344c0-1.726562-.589844-3.3125-1.570313-4.578124h160.285156c3.535157 16.34375 13.34375 30.527343 22.851563 44.265624 10.335937 14.941407 20.097656 29.050782 21.351562 44.707032.332032 4.160156.054688 8.46875-.242187 13.03125-.261719 3.988281-.53125 8.113281-.390625 12.347656.777344 23.597656 13.71875 44.289062 27.195312 62.175781h-75.710937c-4.140625 0-7.496094 3.355469-7.496094 7.496094s3.355469 7.496094 7.496094 7.496094h83.644531c4.269531 0 8.085938-2.382813 9.957031-6.21875 1.875-3.835938 1.40625-8.3125-1.222656-11.683594zm-242.691406 140.289063c-.441407-1.769532-1.039063-3.472657-1.765625-5.109376l21.054687-17.996093.917969 9.472656c.089844.9375.222656 1.878906.398438 2.800781l7.835937 41.28125c-4.4375 3.472656-8.550781 7.421875-12.25 11.851563-1.523437 1.824219-2.9375 3.707031-4.28125 5.632812zm71.851562 28.785156c1.980469-.175782 3.9375-.265625 5.886719-.265625 33.292969 0 61.769531 25.5 64.8125 59.285156 3.21875 35.765625-23.261719 67.480469-59.023438 70.699219-17.324218 1.5625-34.21875-3.722656-47.570312-14.871094-13.355469-11.148438-21.566406-26.828125-23.125-44.152344-3.21875-35.761718 23.257812-67.476562 59.019531-70.695312zm-17.296875-276.496094 6.628906 8.839844-35.601562 178.203125c-1.933594 9.6875-7.109375 18.535156-14.5625 24.90625l-22.941406 19.609375c-4.957032 4.238281-8.40625 9.820312-9.980469 16.152344l-11.910156 47.929687c-1.34375-1.921875-2.761719-3.804687-4.28125-5.628906-3.699219-4.429688-7.8125-8.382813-12.253907-11.855469l7.835938-41.277344c.175781-.921875.3125-1.867187.402344-2.804687l5.941406-61.378907c.582031-6.027343 2.355469-11.773437 5.269531-17.078124zm-85.921875 125.324219-12.671875 23.074219c-3.675781 6.699218-5.976562 13.921874-6.886718 21.484374l-8.925782-44.558593zm0 0"/><path d="m255.996094 72.460938c-4.140625 0-7.496094 3.355468-7.496094 7.496093v34.980469c0 4.140625 3.355469 7.496094 7.496094 7.496094 4.136718 0 7.496094-3.355469 7.496094-7.496094v-34.980469c0-4.140625-3.359376-7.496093-7.496094-7.496093zm0 0"/></svg>