<svg width="216" height="64" fill="none" xmlns="http://www.w3.org/2000/svg"><path d="M.44873 24.0445c0 7.0228 4.92989 11.2087 9.95327 11.2087 2.6047 0 5.3028-1.1631 7.3024-3.6279v4.1397c0 3.1625-2.0931 4.3718-4.9299 4.3718-1.6276 0-3.44205-.5117-4.27948-2.1854L2.7277 40.0443c2.13916 4.2322 6.41865 5.4879 10.2327 5.4879 7.2088 0 11.7677-3.3948 11.7677-11.1627v-21.349h-6.093l-.9307 3.1626c-1.7674-2.5111-4.6042-3.8603-7.5345-3.8603-4.79128 0-9.72117 3.6745-9.72117 11.7217zm7.34866-.3731c0-4.0462 2.32621-5.8134 5.11671-5.8134 2.7444 0 5.0697 1.4888 5.0697 6.0004 0 4.5107-2.3253 5.906-5.0697 5.906-2.7905 0-5.11671-1.9994-5.11671-6.093zm20.40441-5.2556h4.3719v17.6749h7.1165V13.0205H28.2018v5.3953zm7.9528-9.20937c2.3262 0 4.186-1.90701 4.186-4.18598 0-2.32502-1.8598-4.185977-4.186-4.185977-2.3253 0-4.186 1.860957-4.186 4.185977 0 2.27897 1.8607 4.18598 4.186 4.18598zm5.8341 9.20937h3.8141v17.6749h7.069V18.4158h5.0234v-5.3953h-5.0234V9.90429c0-1.76744.559-2.09311 3.0701-2.09311h1.9533V2.22996h-3.2087c-6.2328 0-8.8837 1.53505-8.8837 7.0237v3.76684h-3.8141v5.3953zm17.0786 0h3.8138v17.6749h7.0702V18.4158h5.0225v-5.3953h-5.0225V9.90429c0-1.76744.5581-2.09311 3.0692-2.09311h1.9533V2.22996h-3.209c-6.2326 0-8.8835 1.53505-8.8835 7.0237v3.76684h-3.814v5.3953zm16.9633 6.0007c0 7.6278 5.162 12.232 12.6503 12.232 3.7677 0 7.6743-1.6274 10.0931-5.163l-5.6275-2.0459c-.8838 1.0226-2.4651 1.7212-4.6515 1.7212-2.6046 0-5.116-1.5823-5.3491-4.8373h17.0701c.465-8.1398-4.2327-13.9544-11.8136-13.9544-6.7443 0-12.3718 4.6987-12.3718 12.0474zm12.5579-6.7909c2.7442 0 4.976 1.5351 5.0695 4.5119H83.1459c.4192-3.1636 2.7917-4.5119 5.4426-4.5119zm22.0655 18.4651V24.4625c0-3.6742 1.86-5.163 5.302-5.163.651 0 1.163.0473 1.907.1396v-7.07c-3.535-.1858-6 1.1631-7.442 4.8846l-1.256-4.2332h-5.581v23.0702h7.07zM34.9806 59.6252c2.0466 0 3.7451-1.0932 4.6052-2.581l-1.7911-.6514c-.5115.8599-1.4875 1.5115-2.7442 1.5115-1.7202 0-3.3249-1.3955-3.3249-4.3022 0-2.9069 1.5811-4.2559 3.3249-4.2559 1.1867 0 2.1864.6053 2.6982 1.5351l1.7908-.6513c-.7449-1.4191-2.279-2.6047-4.3494-2.6047-3.4184 0-5.5812 2.5584-5.5812 6.0004 0 3.4884 2.0704 5.9995 5.3717 5.9995zm7.0001-11.814v11.5346h1.9533v-4.9525c0-3.0701 1.0472-4.745 4.2096-4.745v-2.0232c-1.9294 0-3.3023.93-4.1161 2.3262l-.6277-2.1401h-1.4191zm12.8109 11.814c2.163 0 3.7443-.9534 4.5815-2.3026l-1.8843-.5578c-.5342.6976-1.3953 1.1395-2.6972 1.1395-1.4189 0-3.4657-.8837-3.558-3.7904h8.8834c.2324-3.3025-1.6982-6.4886-5.3727-6.4886-3.1624 0-5.6039 2.3262-5.6039 5.9768 0 3.3949 2.0233 6.0231 5.6512 6.0231zm-.0473-10.3253c2.0469 0 3.2799 1.6277 3.3025 3.2553H51.256c.1861-2.3252 1.7448-3.2553 3.4883-3.2553zm10.9089 10.3253c2.0232 0 3.2325-.6976 3.9302-1.8607l.4654 1.5813h1.7909c-.2097-1.0922-.372-2.4178-.3956-4.3484l-.0236-2.6972c-.0227-3.2333-1.3955-4.6749-4.5816-4.6749-2.0695 0-3.7904 1.0233-4.4183 2.7905l1.8836.5581c.2558-1.1159 1.1631-1.7901 2.5583-1.7901 1.8608 0 2.6746 1.0924 2.6047 3.0467-4.7214.5342-7.7905 1.3253-7.7905 4.0698 0 2.1155 1.791 3.3249 3.9765 3.3249zm3.9762-5.8372v.7212c0 2.7208-1.7436 3.5583-3.5571 3.5583-1.3964 0-2.2326-.7213-2.2326-1.8145 0-1.5813 2.2553-2.0931 5.7897-2.465zm3.8693-5.9768v1.5587h1.9543v7.0926c0 2.3952.5105 2.8833 2.7208 2.8833h1.4651v-1.7202H78.592c-1.1161 0-1.1858-.303-1.1858-1.4888v-6.7669h2.2327v-1.5587h-2.2327v-2.9067H75.453v2.9067h-1.9543zm13.6098 11.814c2.1628 0 3.7441-.9534 4.5816-2.3026l-1.8834-.5578c-.5354.6976-1.3953 1.1395-2.6982 1.1395-1.4179 0-3.4647-.8837-3.5583-3.7904h8.8838c.2333-3.3025-1.6973-6.4886-5.3718-6.4886-3.1624 0-5.6048 2.3262-5.6048 5.9768 0 3.3949 2.0232 6.0231 5.6511 6.0231zm-.0463-10.3253c2.0468 0 3.2789 1.6277 3.3025 3.2553h-6.7908c.1861-2.3252 1.7438-3.2553 3.4883-3.2553zm18.3328 9.8372c1.837 0 2.954-.7676 3.675-1.9767v1.535c0 1.8834-.349 2.7206-1.768 3.2088-.209.0699-.721.1861-1.301.1861-.954 0-2.117-.3023-2.535-1.5115l-1.955.5352c.606 1.9297 2.605 2.6972 4.49 2.6972.79 0 1.557-.1398 2.209-.372 2.674-.9772 2.814-2.9067 2.814-5.1856V47.8112h-1.419l-.535 1.8144c-.721-1.2094-1.837-2.0005-3.675-2.0005-2.558 0-4.883 2.0704-4.883 5.7673 0 3.6981 2.325 5.7447 4.883 5.7447zm.488-9.8372c1.745 0 3.257 1.1622 3.257 4.0925 0 2.9305-1.512 4.1161-3.257 4.1161-1.906 0-3.255-1.4878-3.255-4.1161 0-2.6273 1.349-4.0925 3.255-4.0925zm7.805-1.4887v1.5587h1.605v9.9759h1.953V47.8112h-3.558zm2.582-2.1855c.813 0 1.464-.6513 1.464-1.4651 0-.7912-.651-1.4427-1.464-1.4427-.792 0-1.443.6515-1.443 1.4427 0 .8138.651 1.4651 1.443 1.4651zm3.193 3.7442h1.953v9.9759h1.953v-9.9759h2.396v-1.5587h-2.396v-1.7436c0-1.1867.186-1.489 1.187-1.489h1.209v-1.651h-1.256c-2.581 0-3.093.7911-3.093 3.1627v1.7209h-1.953v1.5587zm7.593 7.3722c.768 1.9758 2.838 2.8831 4.838 2.8831 2.396 0 4.697-1.2557 4.697-3.4421 0-4.9062-7.325-2.6046-7.325-5.3953 0-.9997 1.14-1.5341 2.326-1.5341 1.093 0 2.232.4418 2.628 1.3718l1.837-.674c-.697-1.6049-2.512-2.3489-4.326-2.3489-2.232 0-4.441 1.1386-4.441 3.2088 0 4.6042 7.324 2.279 7.324 5.4416 0 1.0469-1.348 1.721-2.72 1.721-1.279 0-2.605-.5579-2.953-1.9295l-1.885.6976z" fill="#000"/><path fill-rule="evenodd" clip-rule="evenodd" d="M144.754 52.6721h16.698v1.8371h-16.698v-1.8371z" fill="#000"/><path d="M175.453 59.6251c2.163 0 3.744-.9534 4.581-2.3026l-1.883-.5578c-.535.6976-1.395 1.1395-2.698 1.1395-1.418 0-3.465-.8838-3.558-3.7904h8.885c.232-3.3025-1.699-6.4886-5.373-6.4886-3.163 0-5.605 2.3262-5.605 5.9768 0 3.3948 2.024 6.0231 5.651 6.0231zm-.046-10.3253c2.046 0 3.279 1.6277 3.302 3.2553h-6.791c.186-2.3253 1.745-3.2553 3.489-3.2553zm10.908 10.3253c2.024 0 3.233-.6976 3.931-1.8607l.465 1.5813h1.79c-.209-1.0922-.372-2.4178-.395-4.3485l-.023-2.6972c-.024-3.2333-1.396-4.6748-4.582-4.6748-2.069 0-3.79 1.0233-4.418 2.7905l1.883.5581c.256-1.1159 1.164-1.7902 2.559-1.7902 1.86 0 2.674 1.0925 2.604 3.0468-4.721.5342-7.791 1.3253-7.791 4.0698 0 2.1155 1.791 3.3249 3.977 3.3249zm3.977-5.8372v.7212c0 2.7208-1.744 3.5583-3.558 3.5583-1.396 0-2.233-.7213-2.233-1.8145 0-1.5813 2.256-2.0931 5.791-2.465zm4.125 2.9541c.767 1.9757 2.837 2.8831 4.837 2.8831 2.395 0 4.698-1.2557 4.698-3.4421 0-4.9063-7.326-2.6046-7.326-5.3953 0-.9997 1.139-1.5342 2.326-1.5342 1.092 0 2.232.4419 2.627 1.3719l1.838-.674c-.698-1.605-2.512-2.3489-4.326-2.3489-2.232 0-4.442 1.1386-4.442 3.2088 0 4.6042 7.326 2.2789 7.326 5.4416 0 1.0469-1.349 1.7209-2.721 1.7209-1.279 0-2.605-.5578-2.954-1.9294l-1.883.6976zm14.388 2.6273c-.534 1.7672-.837 2.0006-2.511 2.0006h-.791v1.7199h1.001c2.581 0 3.185-.7439 4.022-3.2326l4.093-12.0225h-2.14l-2.837 8.8837-2.836-8.8837h-2.163l4.162 11.5346z" fill="#000"/><path d="M165.606 30.2816c-1.451 1.3124-4.272 1.9186-5.709 1.7573-.07-.0078-.14-.0241-.206-.0487-1.257-.4326-14.359-4.8009-14.754-4.9426l2.292-1.1189 3.947-1.9241 14 4.6761.085.029c.311.106.545.3672.615.6887.071.3216-.032.6565-.27.8832z" fill="#607D8B"/><path d="M140.907 20.2852c.145-.2744.265-.5599.363-.8544.965-3.1226-.728-6.4463-3.822-7.502-1.462-.5299-3.076-.4444-4.474.2364-1.398.6811-2.46 1.9-2.943 3.3779-.938 3.007.595 6.2287 3.52 7.3977.099.0421.197.0756.296.1087l5.279 1.6583 6.248-3.0432-4.467-1.3794zm-8.611-3.8171c.445-1.3277 1.646-2.2563 3.043-2.3529 1.397-.0968 2.714.6577 3.338 1.9113.623 1.2535.43 2.7593-.489 3.8152-.92 1.0556-2.385 1.4533-3.713 1.0072-1.811-.6086-2.786-2.5692-2.179-4.3808z" fill="#F44335"/><path d="M163.96 16.4295c-1.647-1.1355-4.547-1.4222-5.95-1.1081-.073.0189-.144.0444-.213.0763l-13.171 6.4253 2.234 4.4887 16.952-8.2675c.3-.1434.503-.4341.533-.7652.03-.3313-.116-.6542-.385-.8495z" fill="#CFD8DC"/><path d="M142.174 31.5342c-.253 1.8827-1.434 3.5129-3.145 4.3395-1.693.7876-3.656.7489-5.316-.1051-1.661-.854-2.835-2.427-3.179-4.2625-.169 1.2082.039 2.4391.596 3.5245 1.46 2.9239 4.99 4.1446 7.944 2.747 2.329-1.1383 3.601-3.7006 3.1-6.2434z" fill="#C52828"/><path d="M165.176 28.6807c-1.578 1.0329-3.441 1.5419-5.325 1.4542-.07-.0078-.139-.024-.206-.0486-.938-.3205-8.489-2.8408-12.416-4.1576l3.947-1.9241 14 4.6761z" fill="#CFD8DC"/><path d="M142.174 31.5341c-.105-.5637-.29-1.1095-.551-1.6205-.143-.2822-.312-.551-.504-.8023l.765-.3747 5.505-2.6824-.79-1.5435-1.486-2.9289-.184.0937-6.248 3.043-5.007 2.4436c-.092.0512-.18.089-.272.14-1.565.8714-2.627 2.4294-2.868 4.2039.344 1.8355 1.518 3.4086 3.179 4.2625 1.66.854 3.623.8927 5.316.1051 1.711-.8266 2.892-2.4568 3.145-4.3395zm-4.234 4.0139c-1.713.8053-3.754.0977-4.601-1.5941-.39-.751-.485-1.6199-.268-2.4375.246-.9238.88-1.6959 1.739-2.1158 1.712-.8053 3.754-.1006 4.605 1.5897.086.1702.159.3471.217.529.515 1.5768-.206 3.293-1.692 4.0287z" fill="#F44335"/><path d="M153.343 24.7317l-4.861 2.3644-.533.2577-.853.4211c-.889-.2993-1.571-.5321-1.916-.6441l1.676-.8192.466-.2248.067-.0326.448-.2246.004.0042 3.577-1.7459 1.925.6438z" fill="#607D8B"/><path d="M145.109 21.5864l-.18.089-.238.1125-.004.0044-.062.0284-.435.2106-5.319 2.5981-1.853-.5834.634-.3089 5.601-2.7293.502.1571.731.2274.623.1941z" fill="#C52828"/><path d="M131.199 22.1615c.613.5838 1.33 1.0467 2.115 1.3633.111.0454.217.082.329.1212l.008.0007 3.395 1.1749-3.645 1.7788c-.105.0508-.203.0994-.302.1556-3.02 1.7004-4.14 5.4934-2.53 8.5621.344.678.802 1.2925 1.352 1.8175 1.983 1.9122 4.943 2.3952 7.431 1.212 1.527-.7394 2.689-2.0655 3.222-3.6766.557-1.6652.416-3.485-.391-5.0447-.047-.0923-.096-.1733-.146-.2612l3.381-1.6493 14.072 4.8697c.11.0387.225.0649.341.0781 1.484.1637 4.545-.4232 6.199-1.916.405-.3636.586-.9163.473-1.4493-.108-.5517-.503-1.0037-1.035-1.1853l-12.209-4.2204 10.831-5.2828c.508-.2451.846-.7436.885-1.3062.046-.5472-.205-1.0771-.657-1.3886-1.865-1.2916-4.996-1.5337-6.448-1.2049-.12.0274-.237.0687-.347.1235l-12.634 6.162-3.131-1.0831c.037-.0952.076-.1887.107-.2869 1.068-3.4482-.796-7.1215-4.21-8.2952-1.65-.5838-3.466-.4731-5.032.307-1.523.7543-2.674 2.0943-3.191 3.7132-.766 2.4211-.08 5.0673 1.767 6.8109zm33.855 7.1446c.11.0383.191.132.214.2459.024.098-.008.2014-.083.2689-1.312 1.1832-3.965 1.7358-5.218 1.5974-.023-.0028-.045-.0085-.067-.0165l-12.886-4.458 4.646-2.2653 13.394 4.6276zm-6.981-13.3406c.023-.0118.048-.0212.073-.0276 1.228-.2773 3.964-.0203 5.456 1.0124.083.0588.128.1571.118.2579-.008.116-.077.2185-.182.2702l-22.69 11.0687c-.017.0111-.033.0234-.048.0366-.019.0078-.038.017-.056.0271-.016.0142-.03.0293-.044.0456-.059.055-.108.1214-.142.1953-.016.0371-.03.0756-.039.1155-.009.0376-.014.0763-.016.115-.002.0402 0 .0806.007.12.006.0404.018.0803.033.1185.004.0215.009.0423.016.0629.012.0177.025.0342.039.0503.008.0191.017.0378.027.0557.167.2225.314.4593.439.708.652 1.2592.767 2.7289.318 4.0741-.427 1.2889-1.358 2.35-2.58 2.9416-2.648 1.241-5.802.1469-7.113-2.467-1.3-2.4662-.405-5.5193 2.021-6.8924.08-.0444.157-.0821.239-.1211l.002-.0026 24.122-11.7647zm-24.891-3.1995c1.264-.6275 2.729-.7156 4.058-.2442 2.77.9463 4.286 3.9212 3.425 6.7181-.082.2572-.186.5061-.314.7444-.008.0168-.008.0352-.016.0522-.007.0172-.019.0255-.024.0413-.009.0331-.015.0669-.019.1011-.005.0203-.009.0411-.012.0621-.005.0706.002.1417.021.21.005.0155.012.0307.019.0455.019.0532.045.1032.078.1491.012.0174.025.0342.039.05.013.0128.02.0298.033.0421.019.0134.04.0257.061.037.022.0218.046.0418.07.06.019.0092.038.0092.056.0168.013.009.027.017.041.0243l2.59.8967-4.648 2.2677-4.586-1.5889-.006-.0003c-.087-.0302-.17-.0583-.261-.0956-2.619-1.0439-3.994-3.926-3.159-6.6185.414-1.2951 1.336-2.3673 2.554-2.9709z" fill="#000"/><path d="M132.759 20.5346c.433.4119.951.7236 1.518.913 1.979.6627 4.139-.2699 5.013-2.1647.875-1.8945.183-4.1439-1.605-5.2191-1.788-1.0755-4.1-.6327-5.363 1.0277-1.264 1.6603-1.076 4.0058.437 5.4431zm3.716-5.6514c1.484.4967 2.283 2.1016 1.786 3.5845-.496 1.4831-2.101 2.2825-3.584 1.7861-1.483-.4964-2.283-2.1014-1.786-3.584.236-.7142.747-1.3046 1.42-1.6399.673-.3354 1.452-.3883 2.164-.1467zm-3.698 19.3569c.213.4191.495.7987.836 1.1227 1.227 1.1836 3.061 1.4817 4.6.7488.948-.4586 1.67-1.2816 2.001-2.2811.345-1.0308.258-2.1573-.24-3.1234-1.006-1.9947-3.418-2.8253-5.439-1.8726-.947.4594-1.668 1.2819-2 2.2809-.344 1.0315-.257 2.1585.242 3.1247zm2.308-4.2725c1.066-.5035 2.332-.2945 3.179.525.238.2272.436.4936.585.7872.345.6655.406 1.442.169 2.153-.224.679-.714 1.238-1.358 1.5495-1.403.6556-3.072.0737-3.763-1.3114-.346-.6653-.407-1.4425-.17-2.1538.225-.679.715-1.238 1.358-1.5495zm9.403-5.2702c.151.3049.52.4299.826.2801.146-.0727.256-.2005.308-.3549.051-.1547.038-.3233-.036-.4686-.151-.3049-.52-.4296-.826-.2798-.146.0725-.256.2002-.308.3549-.051.1545-.038.3231.036.4683zm7.262 2.1505c-.05.1597-.035.3323.043.4804.077.1476.21.2588.369.3089l4.084 1.284c.216.0732.455.0234.624-.1297.169-.1532.242-.3856.191-.6081-.052-.222-.219-.3991-.439-.4628l-4.081-1.2819c-.159-.0508-.332-.0359-.48.0408-.149.0768-.26.2093-.311.3684zm6.973 2.7853c.069.0664.152.1162.244.1455l1.361.4282c.216.0727.455.0231.624-.1299.169-.1533.242-.3857.191-.6081-.052-.2223-.219-.3992-.438-.4627l-1.361-.4281c-.281-.0898-.585.0264-.735.28-.149.2534-.103.5765.111.778l.003-.0029z" fill="#000"/></svg>